<svg width="170" height="137" fill="none" xmlns="http://www.w3.org/2000/svg"><path d="M119.065 68.834c-1.198-1.57-2.562-2.934-4.132-3.967-.042-.207-.042-.33-.083-.579 1.322-4.421-1.074-11.694-2.479-16.115-6.446-20.33-28.058-32.81-48.76-31.033-25 2.107-43.181 23.636-45.33 47.933-.91 10.29 1.157 20.166 6.86 28.76 7.52 11.323 19.545 14.504 31.858 18.058 6.405 1.86 13.802 4.297 21.405 6.198 4.38 1.86 9.05 3.058 14.959 2.686.041 0 .124-.041.165-.041 13.802 1.157 26.57-2.108 33.471-17.19 5.702-12.314 3.76-26.86-7.934-34.71Z" fill="#FFC244"/><path d="M37.124 83.38s3.181-9.835-2.356-15.373c-5.537-5.537-7.603-18.553 5.207-25.206" stroke="#222221" stroke-width="1.653" stroke-miterlimit="10" stroke-linecap="round" stroke-linejoin="round" stroke-dasharray="1.65 1.65"/><path d="M29.314 115.362c6.8 0 12.314-5.513 12.314-12.314 0-6.8-5.513-12.314-12.314-12.314-6.8 0-12.314 5.514-12.314 12.314 0 6.801 5.513 12.314 12.314 12.314Z" fill="#FFC244" stroke="#222221" stroke-width="1.653" stroke-miterlimit="10" stroke-linecap="round" stroke-linejoin="round"/><path d="M29.314 110.238a7.19 7.19 0 1 0 0-14.38 7.19 7.19 0 0 0 0 14.38Z" fill="#fff" stroke="#222221" stroke-width="1.653" stroke-miterlimit="10" stroke-linecap="round" stroke-linejoin="round"/><path d="M79.024 129.866c6.8 0 12.314-5.513 12.314-12.314s-5.513-12.314-12.314-12.314c-6.8 0-12.314 5.513-12.314 12.314s5.513 12.314 12.314 12.314Z" fill="#FFC244" stroke="#222221" stroke-width="1.653" stroke-miterlimit="10" stroke-linecap="round" stroke-linejoin="round"/><path d="M78.9 124.908a6.943 6.943 0 1 0-.002-13.884 6.943 6.943 0 0 0 .002 13.884ZM27.578 103.627l-.289-.496a2.017 2.017 0 0 1 .785-2.727l14.504-7.934a2.018 2.018 0 0 1 2.727.785l.29.496c.537.992.165 2.19-.785 2.727l-14.504 7.934c-.992.537-2.232.165-2.728-.785Z" fill="#fff" stroke="#222221" stroke-width="1.653" stroke-miterlimit="10" stroke-linecap="round" stroke-linejoin="round"/><path d="m64.52 110.528 14.959 4.38c.702.206 1.28.62 1.694 1.198a3.184 3.184 0 0 1-1.281 4.793c-.703.331-1.488.372-2.231.166l-15.992-4.67 2.851-5.867ZM54.396 77.388l-7.355 24.793s-1.983 5.537 1.033 6.405c3.017.867 11.446 3.347 11.446 3.347l.372 4.462-14.545-4.214c-2.066-.62-3.637-2.273-4.174-4.381L32.62 90.941c.041.041 8.719-17.355 21.776-13.553Z" fill="#fff" stroke="#222221" stroke-width="1.653" stroke-miterlimit="10" stroke-linecap="round" stroke-linejoin="round"/><path d="M65.636 94.66c-3.595-.124-6.446 3.017-5.992 6.57l-.578 14.959 5.785 1.694s.95-17.81 16.942-19.256l-.166-3.76-15.991-.207Z" fill="#fff" stroke="#222221" stroke-width="1.653" stroke-miterlimit="10" stroke-linecap="round" stroke-linejoin="round"/><path d="M84.685 96.52c-.124 1.57-1.487 2.727-3.099 2.603l-21.86-1.57c-1.57-.124-2.727-1.488-2.602-3.1.123-1.57 1.487-2.727 3.099-2.603l21.859 1.57c1.57.166 2.727 1.53 2.603 3.1Z" fill="#fff" stroke="#222221" stroke-width="1.653" stroke-miterlimit="10" stroke-linecap="round" stroke-linejoin="round"/><path d="M84.685 96.52c-.124 1.57-1.487 2.727-3.099 2.603l-21.86-1.57c-1.57-.124-2.727-1.488-2.602-3.1.123-1.57 1.487-2.727 3.099-2.603l21.859 1.57c1.57.166 2.727 1.53 2.603 3.1Z" fill="#FFC244" stroke="#222221" stroke-width="1.653" stroke-miterlimit="10" stroke-linecap="round" stroke-linejoin="round"/><path d="m54.19 78.09-7.975-2.355c-1.984-.579-3.141-2.686-2.562-4.711l.537-1.818c.578-1.984 2.686-3.14 4.71-2.562l7.976 2.355-2.686 9.09Z" fill="#fff" stroke="#222221" stroke-width="1.653" stroke-miterlimit="10" stroke-linecap="round" stroke-linejoin="round"/><path d="m59.603 74.206-6.322-1.86a2.081 2.081 0 0 1-1.405-2.603 2.08 2.08 0 0 1 2.603-1.405l6.322 1.86a2.081 2.081 0 0 1 1.405 2.603 2.081 2.081 0 0 1-2.603 1.405Z" fill="#FFC244" stroke="#222221" stroke-width="1.653" stroke-miterlimit="10" stroke-linecap="round" stroke-linejoin="round"/><path d="m53.322 68.338 6.074-7.273" stroke="#222221" stroke-width="1.653" stroke-miterlimit="10" stroke-linecap="round" stroke-linejoin="round"/><path d="m62.785 64.95-2.852-.827a1.635 1.635 0 0 1-1.115-2.025l.124-.454a1.635 1.635 0 0 1 2.025-1.116l2.85.827a1.635 1.635 0 0 1 1.116 2.024l-.124.455a1.635 1.635 0 0 1-2.024 1.116ZM48.24 47.181c1.322 3.182 4.297 7.727 4.297 7.727.454.703 1.405.91 2.107.372 0 0 4.174-3.058 6.488-5.537 1.818-1.942 3.388-3.719 4.793-5.454 5.248-6.447 7.645-11.447 8.554-16.612 1.487-8.264-4.587-16.24-12.852-17.685-8.264-1.488-16.694 3.925-18.181 12.148-.868 4.835-.455 10.041 1.818 17.149.785 2.396 1.777 5 2.975 7.892Zm12.148-30.123c4.504.785 7.48 5.082 6.694 9.586-.785 4.504-5.083 7.48-9.587 6.694-4.504-.785-7.479-5.082-6.694-9.586.785-4.504 5.083-7.48 9.587-6.694Z" fill="#fff" stroke="#222221" stroke-width="1.653" stroke-miterlimit="10" stroke-linecap="round" stroke-linejoin="round"/><path d="M35.925 47.636c2.686 2.148 7.48 4.71 7.48 4.71a1.485 1.485 0 0 0 2.066-.66s2.231-4.712 3.058-7.976a116.631 116.631 0 0 0 1.611-7.066c1.529-8.182 1.24-13.719-.413-18.677C47.082 10.033 37.95 5.9 29.975 8.545 22 11.19 17.165 19.95 19.81 27.884c1.529 4.67 4.38 9.05 9.752 14.215 1.818 1.735 3.925 3.553 6.363 5.537Zm-3.677-32.273c4.339-1.446 9.008.91 10.454 5.248 1.446 4.339-.909 9.008-5.248 10.455-4.339 1.446-9.008-.91-10.454-5.248-1.446-4.339.909-9.008 5.248-10.455Z" fill="#FFC244" stroke="#222221" stroke-width="1.653" stroke-miterlimit="10" stroke-linecap="round" stroke-linejoin="round"/><path d="m81.545 81.189 21.611 6.446V37.842l-21.818 8.471a4.03 4.03 0 0 0-3.264 3.967v26.942c0 1.983 1.487 3.678 3.47 3.967ZM138.982 80.569l-35.826 7.066V37.842l32.562 5.827a4.03 4.03 0 0 1 3.264 3.967v32.933Z" fill="#fff" stroke="#222221" stroke-width="1.653" stroke-miterlimit="10" stroke-linecap="round" stroke-linejoin="round"/><path d="m138.982 51.19-35.826-4.298-25.082 7.438M116.42 48.462v-7.355M128.941 50.032v-6.777" stroke="#222221" stroke-width="1.653" stroke-miterlimit="10" stroke-linecap="round" stroke-linejoin="round"/><path d="m103.156 87.635 32.149 10 30.826-10-27.149-7.066-35.826 7.066Z" fill="#fff"/><path d="m103.156 87.635 26.901 8.347a17.174 17.174 0 0 0 10.495-.082l21.57-6.984c1.157-.372 1.116-2.066-.082-2.355l-23.058-6.033-35.826 7.107ZM138.982 80.569l-35.826-4.174M121.214 58.917v-3.513c0-1.033.826-1.9 1.901-1.9h.124l3.14.413a1.907 1.907 0 0 1 1.818 1.9v3.513" stroke="#222221" stroke-width="1.653" stroke-miterlimit="10" stroke-linecap="round" stroke-linejoin="round"/><path d="m136.214 84.784-19.794 1.9.909-28.76 17.48 1.654 1.405 25.206Z" fill="#FFC244" stroke="#222221" stroke-width="1.653" stroke-miterlimit="10" stroke-linecap="round" stroke-linejoin="round"/><path d="m116.42 86.685-7.892-2.52 2.19-24.34 6.612-1.9-.91 28.76Z" fill="#FFC244" stroke="#222221" stroke-width="1.653" stroke-miterlimit="10" stroke-linecap="round" stroke-linejoin="round"/><path d="m90.18 112.387 14.835 2.975M91.338 118.875l10.083 1.983M89.478 124.949l7.686 1.529" stroke="#222221" stroke-width="1.653" stroke-miterlimit="10" stroke-linecap="round" stroke-linejoin="round"/><path d="M108.363 10.487s.165 3.347-6.777 13.058c-6.942 9.71-16.157 5.744-16.612 2.438-.495-3.306 3.1-3.843 3.1-3.843 1.198 0 2.272-.248 3.181.083 0 0 9.339-.703 5.91 17.644" stroke="#222221" stroke-width="1.653" stroke-miterlimit="10" stroke-linecap="round" stroke-linejoin="round" stroke-dasharray="2.89 2.89"/><path d="M111.958 11.48a19.986 19.986 0 0 0-1.653-2.15c-.414-.454-.868-1.115-1.488-1.28-.537-.125-.992.206-1.405.454-.909.537-1.777 1.116-2.686 1.694-.826.537-.082 1.86.785 1.322.496-.33 1.033-.66 1.529-.95.248-.165 1.24-.992 1.529-.95-.248-.083-.206.04.165.289.207.207.414.454.62.661.455.537.868 1.074 1.24 1.653.578.826 1.942.082 1.364-.744Z" fill="#222221"/></svg>