<svg width="170" height="137" fill="none" xmlns="http://www.w3.org/2000/svg"><path d="M24.945 66.294c3.09 5.757 7.663 10.372 12.489 14.52 8.255 7.113 12.53 12.362 16.637 22.649 11.684 29.38 46.907 40.599 75.355 27.941 33.825-14.987 39.54-55.204 17.23-82.721-23.157-28.576-64.094-37.932-98.766-29.72-.508.086-.889.297-1.312.467-7.07 1.016-13.59 3.81-18.839 10.202-8.297 10.118-8.89 25.231-2.794 36.662Z" fill="#FFC244"/><path d="m14.573 63.67.212.507 7.07 17.611c.635 1.059 1.99 1.355 3.048.72l11.091-6.773c.254-.17.466-.381.593-.593.635-.89.423-2.117-.423-2.837L20.077 60.24l-4.615 1.1-.889 2.33Z" fill="#FFC244" stroke="#272726" stroke-width="1.567" stroke-miterlimit="10" stroke-linecap="round" stroke-linejoin="round"/><path d="m11.61 57.065 3.895-2.413 1.862 3.048-3.894 2.37-1.863-3.005Z" fill="#fff" stroke="#272726" stroke-width="1.567" stroke-miterlimit="10" stroke-linecap="round" stroke-linejoin="round"/><path d="m17.706 58.42-.89-1.313" stroke="#272726" stroke-width="1.567" stroke-miterlimit="10" stroke-linecap="round" stroke-linejoin="round"/><path d="M13.388 60.282h.085l3.937-2.413h.084c.381-.296.974-.127 1.27.339l1.059 1.778c.296.381.127.974-.339 1.27l-4.107 2.456c-.38.296-.973.127-1.27-.34l-1.058-1.777a1.068 1.068 0 0 1 .339-1.313Z" fill="#fff" stroke="#272726" stroke-width="1.567" stroke-miterlimit="10" stroke-linecap="round" stroke-linejoin="round"/><path fill-rule="evenodd" clip-rule="evenodd" d="m9.662 50.206 4.488-2.709.38-.296 3.6-2.244c.804-.466 1.862-.254 2.455.593l.762 1.27c.465.804.254 1.862-.55 2.328l-1.059.635c.17.254.296.381.423.55 1.101 1.482 2.413 2.794 2.837 2.964.127.085.211.042.296.127.72.38 1.016 1.227.635 1.947-.127.212-.254.423-.508.593-.254.17-.593.254-.889.127a8.616 8.616 0 0 1-3.217-1.143c-.762-.466-1.524-.931-2.117-1.524l-7.705 4.699c-.635.339-1.44.17-1.736-.423-1.524-2.54-.677-5.97 1.905-7.494Z" fill="#fff" stroke="#272726" stroke-width="1.567" stroke-miterlimit="10" stroke-linecap="round" stroke-linejoin="round"/><path d="m26.003 52.789 2.583-9.78 9.99 1.906-12.573 7.874Z" fill="#FFC244" stroke="#272726" stroke-width="1.567" stroke-miterlimit="10" stroke-linecap="round" stroke-linejoin="round"/><path d="m28.586 43.01 10.456-5.842 9.61 1.99-10.075 5.757-9.991-1.905Z" fill="#EEC050"/><path d="m28.586 43.01 10.456-5.842 9.61 1.99-10.075 5.757-9.991-1.905Z" fill="#FFC244" stroke="#272726" stroke-width="1.567" stroke-miterlimit="10" stroke-linecap="round" stroke-linejoin="round"/><path d="m28.247 42.968-2.497-3.345 10.371-5.63 2.583 3.175-10.457 5.8Z" fill="#fff" stroke="#272726" stroke-width="1.567" stroke-miterlimit="10" stroke-linecap="round" stroke-linejoin="round"/><path d="m43.488 52.704-4.911-7.79 4.91 7.79Z" stroke="#343434" stroke-width=".522" stroke-miterlimit="10"/><path d="m43.487 52.704-4.91-7.79-12.574 7.875 4.657 7.45 12.7 19.94 12.447-7.916-12.32-19.559Z" fill="#fff" stroke="#272726" stroke-width="1.567" stroke-miterlimit="10" stroke-linecap="round" stroke-linejoin="round"/><path d="m51.827 69.13-9.355-14.817 6.688-3.98" stroke="#fff" stroke-width=".629" stroke-miterlimit="10" stroke-linecap="round" stroke-linejoin="round"/><path d="m62.538 61.13-9.017-14.352-4.869-7.62-10.075 5.757 4.91 7.79 9.568 15.282 2.752 4.276 9.78-6.392-3.049-4.742Z" fill="#fff" stroke="#272726" stroke-width="1.567" stroke-miterlimit="10" stroke-linecap="round" stroke-linejoin="round"/><path d="M63.723 80.772a7.594 7.594 0 0 1-8.678 6.223 7.594 7.594 0 0 1-6.223-8.678l5.842-36.83a7.594 7.594 0 0 1 8.678-6.224 7.594 7.594 0 0 1 6.224 8.678l-5.843 36.831Z" fill="#fff" stroke="#272726" stroke-width="1.567" stroke-miterlimit="10" stroke-linecap="round" stroke-linejoin="round"/><path d="M63.215 44.534c-2.243 2.794-5.842 4.233-9.61 3.598l9.61-3.598Z" fill="#fff"/><path d="M63.215 44.534c-2.243 2.794-5.842 4.233-9.61 3.598" stroke="#272726" stroke-width="1.567" stroke-miterlimit="10" stroke-linecap="round" stroke-linejoin="round"/><path d="M61.86 53.34c-2.243 2.794-5.841 4.233-9.61 3.598l9.61-3.598Z" fill="#fff"/><path d="M61.86 53.34c-2.243 2.794-5.841 4.233-9.61 3.598" stroke="#272726" stroke-width="1.567" stroke-miterlimit="10" stroke-linecap="round" stroke-linejoin="round"/><path d="M88.955 117.772 44.25 133.14 30.449 66.125l41.233-5.843 17.273 57.49Z" fill="#fff"/><path d="M88.955 117.772 44.25 133.14 30.449 66.125l41.233-5.843 17.273 57.49Z" stroke="#272726" stroke-width="1.567" stroke-miterlimit="10" stroke-linecap="round" stroke-linejoin="round"/><path d="m44.25 133.139-19.643-1.397L16.14 74.21l14.309-8.086 13.8 67.015Z" fill="#fff"/><path d="m44.25 133.139-19.643-1.397L16.14 74.21l14.309-8.086 13.8 67.015Z" stroke="#272726" stroke-width="1.567" stroke-miterlimit="10" stroke-linecap="round" stroke-linejoin="round"/><path d="m83.155 91.271-1.905.508-5.08 1.397-3.853 1.016c-.889-1.27-2.667-2.498-5.334-1.693-1.863.508-3.09 2.159-3.133 3.937l-6.604 1.778 4.149 15.494 16.976-4.53 6.943-1.862h.042c1.058-.297 1.651-1.397 1.355-2.456-.297-1.058-1.355-1.693-2.371-1.439l1.82-.466c.89-.254 1.567-1.058 1.567-1.989-.043-1.313-1.313-2.202-2.498-1.905a2.064 2.064 0 0 0 1.44-2.456 2.064 2.064 0 0 0-2.456-1.44 2.064 2.064 0 0 0 1.44-2.455c-.34-1.1-1.44-1.735-2.498-1.439Z" fill="#fff" stroke="#272726" stroke-width="1.567" stroke-miterlimit="10" stroke-linecap="round" stroke-linejoin="round"/><path d="m85.144 103.167-5.715 1.651M85.44 98.934l-6.984 1.989M84.17 95.166l-6.773 1.905" stroke="#272726" stroke-width="1.567" stroke-miterlimit="10" stroke-linecap="round" stroke-linejoin="round"/><path d="M60.167 96.732c-.804 0-1.608.085-2.413.296-18.415 4.954-26.374 4.827-29.422 4.319 0 0-9.483-.72-10.584-16.172-.254.338-3.217 4.022-5.122 7.874-4.191 8.679-2.413 14.69-.17 18.161 3.303 5.123 9.441 7.832 18.204 8.002h1.101c7.662 0 17.653-1.694 30.523-5.123a8.18 8.18 0 0 0 1.778-.72c.296-3.937-.296-9.863-3.895-16.637Z" fill="#FFC244" stroke="#272726" stroke-width="1.567" stroke-miterlimit="10" stroke-linecap="round" stroke-linejoin="round"/><path d="m74.434 93.6-5.207 1.608" stroke="#272726" stroke-width="1.567" stroke-miterlimit="10" stroke-linecap="round" stroke-linejoin="round"/><path d="M58.431 112.099a2.328 2.328 0 1 0 .001-4.656 2.328 2.328 0 0 0 0 4.656Z" fill="#fff"/><path d="M58.431 108.332a1.5 1.5 0 0 1 1.482 1.481 1.5 1.5 0 0 1-1.481 1.482 1.5 1.5 0 0 1-1.482-1.482c0-.846.677-1.481 1.481-1.481Zm0-1.694a3.17 3.17 0 0 0-3.174 3.175 3.17 3.17 0 0 0 3.175 3.175 3.144 3.144 0 0 0 3.175-3.175 3.17 3.17 0 0 0-3.175-3.175Z" fill="#272726"/><path d="m50.134 4.147 11.176 9.737c3.26 2.964 5.97 6.562 8.467 10.203a58.85 58.85 0 0 0 9.695 10.838l23.41 20.447c1.228 1.1 3.133.974 4.234-.296l2.625-3.006c1.1-1.228.973-3.133-.297-4.233l-23.41-20.448a59.419 59.419 0 0 0-12.024-8.128c-3.937-1.99-7.831-4.191-11.26-7.028L51.615 2.496c-.466-.38-1.143-.338-1.524.127-.424.424-.381 1.143.042 1.524Z" fill="#fff"/><path d="m89.25 40.343-8.17-7.154c-.592-.508-.635-1.355-.127-1.948l2.075-2.37c.508-.593 1.354-.636 1.947-.127l8.17 7.154c.593.508.636 1.355.127 1.947l-2.074 2.371c-.508.55-1.354.635-1.947.127Z" fill="#FFC244" stroke="#272726" stroke-width="1.567" stroke-miterlimit="10" stroke-linecap="round" stroke-linejoin="round"/><path d="M97.294 46.27a2.324 2.324 0 0 1-1.566-.593l-.466-.423c-1.016-.889-1.1-2.413-.211-3.387l.423-.465a2.433 2.433 0 0 1 1.82-.805c.593 0 1.143.212 1.567.593l.465.423c.466.424.762 1.017.805 1.651.042.636-.17 1.27-.593 1.736l-.423.466c-.466.508-1.101.804-1.82.804Z" fill="#EEC050"/><path d="M97.252 41.401c.381 0 .72.127 1.016.381l.466.424c.635.55.72 1.566.17 2.201l-.424.466c-.297.339-.72.55-1.186.55-.38 0-.72-.127-1.016-.38l-.465-.424c-.635-.55-.72-1.567-.17-2.202l.424-.465c.296-.339.762-.55 1.185-.55Zm0-1.693c-.931 0-1.82.423-2.455 1.1l-.424.466a3.37 3.37 0 0 0-.804 2.371c.042.847.466 1.651 1.1 2.244l.466.423a3.295 3.295 0 0 0 2.117.805c.931 0 1.82-.424 2.455-1.101l.424-.466c.55-.635.846-1.482.804-2.37-.042-.89-.466-1.652-1.1-2.244l-.466-.424a3.294 3.294 0 0 0-2.117-.804Z" fill="#272726"/><path d="M104.83 56.895a3.992 3.992 0 0 1-2.54-.93l-4.403-3.853a.86.86 0 0 1-.085-1.186l6.562-7.535a.817.817 0 0 1 .635-.297c.212 0 .381.085.55.212l4.403 3.853c1.609 1.397 1.736 3.81.381 5.418l-2.624 3.006a3.77 3.77 0 0 1-2.879 1.313Z" fill="#FFC244"/><path d="m105.042 43.984 4.402 3.852a3.049 3.049 0 0 1 .297 4.233l-2.625 3.006a2.937 2.937 0 0 1-2.244 1.016 3.076 3.076 0 0 1-1.947-.72l-4.403-3.852 6.52-7.535Zm0-1.694h-.127a1.687 1.687 0 0 0-1.144.593l-6.561 7.493c-.635.72-.55 1.778.169 2.37l4.403 3.853c.846.762 1.947 1.143 3.09 1.143a4.664 4.664 0 0 0 3.514-1.608l2.625-3.006a4.725 4.725 0 0 0 1.143-3.387 4.648 4.648 0 0 0-1.609-3.217l-4.403-3.853c-.296-.254-.677-.38-1.1-.38Z" fill="#272726"/><path d="M50.896 2.242c.254 0 .508.085.72.254l11.134 9.737c3.386 2.836 7.323 4.995 11.26 7.027a59.423 59.423 0 0 1 12.023 8.128l23.411 20.448a3.049 3.049 0 0 1 .297 4.233l-2.625 3.006a2.937 2.937 0 0 1-2.244 1.016 3.076 3.076 0 0 1-1.947-.72L79.514 34.924a59.174 59.174 0 0 1-9.695-10.837c-2.497-3.641-5.207-7.197-8.466-10.203L50.176 4.147a1.17 1.17 0 0 1-.084-1.566c.211-.212.508-.339.804-.339Zm0-1.693c-.804 0-1.566.338-2.117.973-.973 1.143-.889 2.879.212 3.895l.042.042 11.134 9.737c3.218 2.964 5.842 6.52 8.213 9.906a60.63 60.63 0 0 0 9.949 11.134l23.41 20.448c.847.762 1.948 1.143 3.091 1.143a4.664 4.664 0 0 0 3.514-1.609l2.624-3.006a4.716 4.716 0 0 0 1.143-3.386 4.647 4.647 0 0 0-1.608-3.218L87.092 26.161a61.127 61.127 0 0 0-12.362-8.382c-3.683-1.863-7.535-3.98-10.922-6.816L52.674 1.226l-.042-.042C52.208.76 51.573.549 50.896.549Z" fill="#272726"/><path d="m53.732 5.586-2.794-2.455" stroke="#fff" stroke-width="1.175" stroke-miterlimit="10" stroke-linecap="round" stroke-linejoin="round"/><path d="m56.018 5.163-2.667 2.963M86.414 23.028l-.042-2.413M90.733 25.018l1.735-3.302M93.611 28.744l1.736-1.736M97.802 31.75l2.879-1.737" stroke="#272726" stroke-width="1.567" stroke-miterlimit="10" stroke-linecap="round" stroke-linejoin="round"/><path d="M114.457 83.188c4.852-1.908 8.003-5.447 7.036-7.906-.966-2.459-5.684-2.906-10.536-.999-4.853 1.907-8.003 5.447-7.037 7.906.967 2.459 5.684 2.906 10.537.999Z" fill="#fff" stroke="#272726" stroke-width="1.567" stroke-miterlimit="10" stroke-linecap="round" stroke-linejoin="round"/><path d="m153.715 85.346-33.281-11.143-4.328 12.927 33.281 11.142 4.328-12.926Z" fill="#EEC050" stroke="#272726" stroke-width="1.567" stroke-miterlimit="10" stroke-linecap="round" stroke-linejoin="round"/><path d="M158.946 100.695c2.099-1.604 1.233-6.263-1.934-10.405-3.167-4.142-7.436-6.199-9.535-4.594-2.098 1.605-1.232 6.264 1.934 10.405 3.167 4.142 7.436 6.199 9.535 4.594ZM124.271 68.652c1.793-.608 2.273-3.973 1.072-7.515-1.201-3.543-3.629-5.922-5.422-5.314-1.794.608-2.274 3.973-1.073 7.516 1.202 3.542 3.629 5.921 5.423 5.313Z" fill="#fff" stroke="#272726" stroke-width="1.567" stroke-miterlimit="10" stroke-linecap="round" stroke-linejoin="round"/><path d="M131.439 60.682c1.244-3.527.806-6.898-.98-7.528-1.786-.63-4.243 1.719-5.487 5.247-1.245 3.527-.806 6.898.98 7.528 1.786.63 4.242-1.719 5.487-5.247Z" fill="#fff" stroke="#272726" stroke-width="1.567" stroke-miterlimit="10" stroke-linecap="round" stroke-linejoin="round"/><path d="M120.028 73.66c1.312-.297 2.117-1.61 1.82-2.921a2.155 2.155 0 0 0-.592-1.101c1.143-.424 1.82-1.651 1.566-2.879-.296-1.312-1.609-2.117-2.921-1.82a2.93 2.93 0 0 0-.339.127c0-.212 0-.424-.042-.678-.296-1.312-1.609-2.116-2.921-1.82-1.143.254-1.905 1.312-1.905 2.413-.381-.085-.762-.127-1.185 0-1.313.296-2.117 1.609-1.821 2.921.212.89.889 1.524 1.694 1.778-.635.593-.932 1.482-.72 2.328.296 1.313 1.609 2.117 2.921 1.82.804-.21 1.439-.761 1.736-1.48.465.973 1.608 1.566 2.709 1.311ZM152.795 88.9a4.716 4.716 0 0 0 3.514-5.673c-.212-.846-.593-1.566-1.144-2.116 2.202-.805 3.557-3.175 2.964-5.504a4.716 4.716 0 0 0-5.673-3.514 3.16 3.16 0 0 0-.677.212c0-.423 0-.847-.127-1.27a4.716 4.716 0 0 0-5.673-3.514 4.705 4.705 0 0 0-3.641 4.657c-.719-.17-1.482-.212-2.244-.042a4.715 4.715 0 0 0-3.513 5.672c.381 1.694 1.693 2.964 3.259 3.43-1.185 1.1-1.778 2.836-1.354 4.53a4.715 4.715 0 0 0 5.673 3.513c1.566-.38 2.794-1.482 3.302-2.879.973 1.948 3.132 3.048 5.334 2.498Z" fill="#FFC244" stroke="#272726" stroke-width="1.567" stroke-miterlimit="10" stroke-linecap="round" stroke-linejoin="round"/><path d="M120.959 75.86c.678 2.54 3.302 4.065 5.843 3.43a4.26 4.26 0 0 0 2.116-1.228c.889 2.244 3.302 3.514 5.673 2.879 2.54-.677 4.064-3.302 3.429-5.842a1.864 1.864 0 0 0-.254-.678c.423 0 .847-.042 1.312-.169 2.541-.677 4.065-3.302 3.43-5.842a4.811 4.811 0 0 0-4.827-3.556c.17-.72.17-1.524-.042-2.286-.677-2.54-3.302-4.064-5.842-3.43a4.73 4.73 0 0 0-3.387 3.388 4.718 4.718 0 0 0-4.614-1.27c-2.54.677-4.064 3.302-3.429 5.842.423 1.566 1.566 2.794 3.005 3.302-1.947 1.016-3.005 3.26-2.413 5.46Z" fill="#FFC244" stroke="#272726" stroke-width="1.567" stroke-miterlimit="10" stroke-linecap="round" stroke-linejoin="round"/><path d="m136.75 131.742-35.476-11.853 8.509-34.587 40.937 13.716-13.97 32.724Z" fill="#fff" stroke="#272726" stroke-width="1.567" stroke-miterlimit="10" stroke-linecap="round" stroke-linejoin="round"/><path d="m152.033 103.251-45.806-15.325a1.38 1.38 0 0 1-.847-1.693l1.44-4.318a1.378 1.378 0 0 1 1.693-.847l45.806 15.325c.677.254 1.058.974.846 1.694l-1.439 4.318c-.254.677-1.016 1.058-1.693.846ZM121.049 83.073c1.505-1.15.882-4.492-1.39-7.464-2.272-2.971-5.334-4.448-6.838-3.298-1.505 1.15-.882 4.492 1.39 7.464 2.272 2.972 5.334 4.448 6.838 3.298Z" fill="#fff" stroke="#272726" stroke-width="1.567" stroke-miterlimit="10" stroke-linecap="round" stroke-linejoin="round"/><path d="M125.548 86.142c4.853-1.908 8.003-5.447 7.037-7.906-.967-2.459-5.684-2.906-10.537-.999-4.852 1.907-8.003 5.447-7.036 7.906.966 2.459 5.684 2.906 10.536.999ZM147.146 91.213c2.099-1.605 1.233-6.264-1.934-10.406s-7.435-6.198-9.534-4.594c-2.099 1.605-1.233 6.264 1.934 10.406s7.435 6.198 9.534 4.594ZM132.009 71.67a3.175 3.175 0 1 0 0-6.351 3.175 3.175 0 0 0 0 6.35ZM149.069 80.348a3.175 3.175 0 1 0 0-6.349 3.175 3.175 0 0 0 0 6.35Z" fill="#fff" stroke="#272726" stroke-width="1.567" stroke-miterlimit="10" stroke-linecap="round" stroke-linejoin="round"/></svg>