<svg width="172" height="136" fill="none" xmlns="http://www.w3.org/2000/svg"><path d="M170.162 91.183c-2.029-6.63-5.863-12.402-10.057-17.768-7.17-9.155-10.553-15.514-12.717-27.104-6.179-33.102-40.679-52.088-73.014-44.737-38.423 8.704-52.674 49.562-35.04 82.935 18.309 34.635 59.167 52.855 97.095 51.411.541 0 .992-.135 1.488-.225 7.577.406 14.973-1.173 21.782-6.81 10.734-8.839 14.477-24.533 10.463-37.702Z" fill="#FFC244"/><path d="m143.599 67.236-35.311 7.035V19.928l35.537 10.102a4.4 4.4 0 0 1 3.563 4.33v28.502a4.42 4.42 0 0 1-3.789 4.374Z" fill="#fff" stroke="#222221" stroke-width="1.666" stroke-miterlimit="10" stroke-linecap="round" stroke-linejoin="round"/><path d="m119.021 36.84 17.633 5.051v10.914l-17.633 3.518V36.84ZM72.976 67.236l35.312 7.035V19.928l-35.537 6.36a4.399 4.399 0 0 0-3.563 4.329v32.29c-.045 2.165 1.578 4.014 3.788 4.33Z" fill="#fff" stroke="#222221" stroke-width="1.666" stroke-miterlimit="10" stroke-linecap="round" stroke-linejoin="round"/><path d="m81.364 68.68 12.944 2.57V53.346c0-1.127-.903-2.074-2.075-2.12l-11.004-.315a1.596 1.596 0 0 0-1.308 1.579v14.566c.045.857.632 1.534 1.443 1.624Z" fill="#fff" stroke="#222221" stroke-width="1.666" stroke-miterlimit="10" stroke-linecap="round" stroke-linejoin="round"/><path d="M71.668 25.25 57.192 40.99l9.967-.406 13.664-16.687-9.155 1.353Z" fill="#FFC244" stroke="#222221" stroke-width="1.666" stroke-miterlimit="10" stroke-linecap="round" stroke-linejoin="round"/><path d="M80.823 23.897 67.16 40.584l10.056-.406L89.978 22.59l-9.155 1.307ZM108.288 19.929l-9.155 1.308-11.996 18.58 10.237-.451 10.914-19.437Z" fill="#fff" stroke="#222221" stroke-width="1.666" stroke-miterlimit="10" stroke-linecap="round" stroke-linejoin="round"/><path d="M89.978 22.59 77.216 40.178l9.921-.361 11.996-18.58-9.155 1.353Z" fill="#FFC244" stroke="#222221" stroke-width="1.666" stroke-miterlimit="10" stroke-linecap="round" stroke-linejoin="round"/><path d="m103.913 3.874-28.998 6.449a3.788 3.788 0 0 0-3.247 3.743v11.23l36.575-5.413V7.617c.045-2.3-2.03-4.059-4.33-3.743Z" fill="#fff" stroke="#222221" stroke-width="1.666" stroke-miterlimit="10" stroke-linecap="round" stroke-linejoin="round"/><path d="M137.376 81.668a2.31 2.31 0 0 1-2.3-2.3v-6.9c0-.136-.09-.226-.225-.226h-.271l-7.937-.992c-.091.045-.181.135-.181.225v6.99a2.31 2.31 0 0 1-2.3 2.3 2.31 2.31 0 0 1-2.3-2.3v-6.99c0-2.66 2.165-4.87 4.871-4.87h.27l8.028 1.037c2.616.09 4.69 2.255 4.69 4.87v6.9c0 1.218-1.037 2.256-2.345 2.256Z" fill="#FFC244" stroke="#222221" stroke-width="1.666" stroke-miterlimit="10" stroke-linecap="round" stroke-linejoin="round"/><path d="M150.364 80.45a2.31 2.31 0 0 1-2.3-2.3v-6.9c0-.135-.09-.226-.225-.226h-.271l-7.937-.992c-.09.045-.181.135-.181.226v6.9a2.31 2.31 0 0 1-2.3 2.3 2.31 2.31 0 0 1-2.3-2.3v-6.99c0-2.661 2.165-4.871 4.871-4.871h.271l8.027 1.037c2.616.09 4.69 2.255 4.69 4.87v6.9c-.045 1.308-1.082 2.346-2.345 2.346Z" fill="#FFC244" stroke="#222221" stroke-width="1.666" stroke-miterlimit="10" stroke-linecap="round" stroke-linejoin="round"/><path d="m163.984 126.946-37.792 3.608 1.804-54.884 33.282 3.156 2.706 48.12ZM126.192 130.554l-15.063-4.781 4.194-46.495 12.673-3.608-1.804 54.884ZM63.28 129.066c.586 3.472 6.133 5.456 12.402 4.464 6.269-1.037 10.914-4.69 10.373-8.162l-1.804-11.095-22.775 3.698 1.804 11.095Z" fill="#fff" stroke="#222221" stroke-width="1.666" stroke-miterlimit="10" stroke-linecap="round" stroke-linejoin="round"/><path d="M71.353 106.922c-16.912 2.751-31.704-.947-33.914-8.298.045.632.135 1.308.27 1.94 2.842 17.543 19.392 29.494 36.98 26.607 17.544-2.841 29.495-19.392 26.608-36.98a28.024 28.024 0 0 0-.36-1.894c.225 7.666-12.628 15.874-29.584 18.625Z" fill="#fff" stroke="#222221" stroke-width="1.666" stroke-miterlimit="10" stroke-linecap="round" stroke-linejoin="round"/><path d="M100.847 87.44a7.579 7.579 0 0 0-.767-2.21c.316.992.631 2.03.857 3.112-.045-.316-.045-.631-.09-.902ZM37.258 97.767c.045.271.136.587.226.857-.09-1.082-.18-2.164-.18-3.202a5.869 5.869 0 0 0-.046 2.346Z" fill="#fff" stroke="#222221" stroke-width="1.666" stroke-miterlimit="10" stroke-linecap="round" stroke-linejoin="round"/><path d="M71.353 106.922c16.911-2.751 29.764-10.958 29.539-18.625-.226-1.037-.541-2.075-.857-3.112-3.563-6.449-17.498-9.515-33.328-6.945-15.829 2.57-28.095 9.922-29.448 17.137 0 1.083.045 2.12.18 3.202 2.21 7.396 17.002 11.094 33.914 8.343Z" fill="#fff" stroke="#222221" stroke-width="1.666" stroke-miterlimit="10" stroke-linecap="round" stroke-linejoin="round"/><path d="M71.353 106.922c-16.912 2.751-31.704-.947-33.914-8.298.045.632.135 1.308.27 1.94 2.842 17.543 19.392 29.494 36.98 26.607 17.544-2.841 29.495-19.392 26.608-36.98a28.024 28.024 0 0 0-.36-1.894c.225 7.666-12.628 15.874-29.584 18.625Z" stroke="#222221" stroke-width="1.666" stroke-miterlimit="10" stroke-linecap="round" stroke-linejoin="round"/><path d="M81.364 75.625c-5.637-3.202-14.476 1.713-19.753 11.004-3.201 5.637-1.262 12.762 4.375 15.964 5.637 3.202 12.763 1.263 15.965-4.374 5.276-9.29 5.05-19.392-.587-22.594Z" fill="#fff" stroke="#222221" stroke-width="1.666" stroke-miterlimit="10" stroke-linecap="round" stroke-linejoin="round"/><path d="M71.533 98.895a5.998 5.998 0 1 0 0-11.996 5.998 5.998 0 0 0 0 11.996Z" fill="#FFC244" stroke="#222221" stroke-width="1.666" stroke-miterlimit="10" stroke-linecap="round" stroke-linejoin="round"/><path d="M96.743 77.7c-5.637-3.203-14.477 1.713-19.753 11.003a11.713 11.713 0 0 0 3.698 15.559c.225.135.451.27.631.406 5.638 3.202 12.763 1.262 15.965-4.375.541-.947.992-1.849 1.398-2.796 3.833-8.433 3.112-16.912-1.94-19.798Z" fill="#fff" stroke="#222221" stroke-width="1.666" stroke-miterlimit="10" stroke-linecap="round" stroke-linejoin="round"/><path d="M86.912 100.969a5.998 5.998 0 1 0 0-11.995 5.998 5.998 0 0 0 0 11.995Z" fill="#FFC244" stroke="#222221" stroke-width="1.666" stroke-miterlimit="10" stroke-linecap="round" stroke-linejoin="round"/><path d="M37.44 98.624c2.209 7.352 17.001 11.05 33.913 8.299 16.911-2.751 29.764-10.96 29.539-18.626" stroke="#222221" stroke-width="1.666" stroke-miterlimit="10" stroke-linecap="round" stroke-linejoin="round"/><path d="M50.653 106.967s-2.48-3.833 1.308-6.313c3.788-2.48 8.343-5.728 8.343-5.728l-4.555 3.202M39.559 101.961s-1.489-3.292 2.931-5.772c4.42-2.48 11.049-6.314 11.049-6.314s4.24-2.57 6.765.541M43.031 95.513c-.406-2.571 2.751-3.067 2.345-5.638-.406-2.57-3.562-2.03-4.013-4.6-.406-2.57 2.75-3.066 2.345-5.637-.406-2.57-3.563-2.03-4.014-4.6-.406-2.57 2.75-3.066 2.345-5.637M53.99 88.342c-.406-2.57-3.563-2.03-4.014-4.6-.405-2.57 2.751-3.067 2.345-5.637-.405-2.57-3.562-2.03-4.013-4.6-.406-2.57 2.75-3.067 2.345-5.637" stroke="#222221" stroke-width="1.666" stroke-miterlimit="10" stroke-linecap="round" stroke-linejoin="round"/><path d="M55.523 68.77 6.908 78.374c-1.714.361-3.383-.766-3.743-2.525-.361-1.714.766-3.382 2.525-3.743.045 0 .135-.045.18-.045l49.112-6.63c.947-.135 1.804.541 1.894 1.443.136.902-.45 1.76-1.353 1.894ZM53.764 62.456l-49.562.225C2.443 62.681 1 61.283 1 59.525c0-1.76 1.398-3.203 3.157-3.203h.18l49.473 2.752a1.716 1.716 0 0 1 1.623 1.803c-.045.857-.812 1.579-1.669 1.579Z" fill="#fff" stroke="#222221" stroke-width="1.666" stroke-miterlimit="10" stroke-linecap="round" stroke-linejoin="round"/><path d="m144.186 23.897 1.804-6.674M151.807 29.4l9.155-5.458M153.386 38.69l6.584 2.39" stroke="#222221" stroke-width="1.666" stroke-miterlimit="10" stroke-linecap="round" stroke-linejoin="round"/><path d="M71.353 106.923c-16.912 2.751-31.704-.947-33.914-8.299.045.632.135 1.308.27 1.94 2.842 17.543 19.393 29.494 36.981 26.608 17.543-2.842 29.494-19.393 26.608-36.98-.09-.632-.226-1.263-.361-1.895.225 7.667-12.627 15.875-29.584 18.626Z" fill="#fff" stroke="#222221" stroke-width="1.666" stroke-miterlimit="10" stroke-linecap="round" stroke-linejoin="round"/><path d="M99.359 105.93c.27-.901.586-1.803.811-2.705-.316 0-.631.09-.947.315-8.839 6.089-17.678 10.418-26.472 11.861-8.885 1.443-18.67.09-29.043-2.886a1.57 1.57 0 0 0-1.534.315v.046c.406.902.677 1.172 1.353 1.894.496.541.992 1.082 1.443 1.668 10.012 2.661 19.528 3.789 28.277 2.345 8.433-1.353 16.866-5.231 25.3-10.733.27-.767.586-1.443.812-2.12Z" fill="#FFC244"/><path d="M71.353 106.923c-16.912 2.751-31.704-.947-33.914-8.299.045.632.135 1.308.27 1.94 2.842 17.543 19.393 29.494 36.981 26.608 17.543-2.842 29.494-19.393 26.608-36.98-.09-.632-.226-1.263-.361-1.895.225 7.667-12.627 15.875-29.584 18.626Z" stroke="#222221" stroke-width="1.666" stroke-miterlimit="10" stroke-linecap="round" stroke-linejoin="round"/></svg>